<svg xmlns="http://www.w3.org/2000/svg" viewBox="0 0 33.001 33.001" width="41" fill="#fff">
    <path d="M5.322 8.425a.73.73 0 1 1 .73-.73.73.73 0 0 1-.73.73zm0-1a.27.27 0 0 0-.27.27c0 .3.54.3.54 0a.27.27 0 0 0-.27-.27z"/><path d="M2.8 12.086c-.598 0-1.317-.402-1.696-.745C.95 11.2-.39 9.95.11 9.07c.144-.253.564-.67 1.562-1.63.67-.647 1.432-1.38 1.76-1.788.155-.19.3-.392.445-.587.527-.718 1.073-1.46 1.912-1.677.733-.188 2.097-.54 3.192.812a.5.5 0 0 1-.776.63c-.638-.787-1.328-.687-2.166-.473-.494.128-.913.697-1.356 1.3-.153.208-.308.42-.473.623-.367.456-1.118 1.18-1.844 1.88-.54.518-1.277 1.23-1.386 1.405.014.116.37.653.795 1.036.342.31.904.526 1.055.484.054-.016.126-.043.212-.075.554-.21 1.585-.596 2.696-.15.857.34 2.647-.392 3.583-1.82a.5.5 0 0 1 .838.548c-1.138 1.738-3.376 2.768-4.792 2.2-.748-.3-1.517-.014-1.975.157-.115.044-.213.08-.29.1a1.05 1.05 0 0 1-.3.04z"/><path d="M9.125 7.08a.5.5 0 0 1-.114-.988c.714-.168 1.478-1.183 1.46-1.743-.01-.282-.084-.46-.133-.53-.014.02-.053.047-.104.098-.648.647-1.677 1.362-2.074 1.607a.503.503 0 0 1-.69-.163.502.502 0 0 1 .165-.69c.35-.215 1.312-.882 1.89-1.462.5-.498.947-.427 1.168-.34.46.18.75.72.775 1.443.04 1.094-1.085 2.482-2.227 2.75a.425.425 0 0 1-.115.016z"/><path d="M26.014 30.192H24.34a.505.505 0 0 1-.373-.165.494.494 0 0 1-.125-.387c.1-.947.333-3.59.225-4.436-.107-.837-.332-1.956-.496-2.772l-.113-.573c-.025-.136-.246-.507-.44-.834-.614-1.03-1.54-2.59-1.323-4.24a.492.492 0 0 1 .56-.43.5.5 0 0 1 .43.56c-.17 1.307.616 2.632 1.19 3.6.294.492.505.85.564 1.154l.112.566c.167.83.395 1.97.507 2.842.112.87-.07 3.076-.168 4.114h.632c.012-.266.032-.638.06-1.15.05-.915.113-2.055.1-2.464-.03-.83.026-3.732.114-4.384.062-.45.477-1.034 1.15-1.95.403-.55.82-1.118 1.084-1.6.57-1.04.883-3.752.45-5.828-.396-1.913-2.018-3.438-4.035-3.796-1.197-.212-2.112.114-2.998.43-.64.228-1.247.443-1.912.443-1.377 0-4.056-.132-5.377-.484-1.273-.342-3.37-1.356-4.064-1.84a.5.5 0 1 1 .573-.82c.623.433 2.593 1.383 3.752 1.692 1.163.312 3.693.45 5.118.45.492 0 .995-.178 1.577-.385.96-.343 2.048-.73 3.507-.472 2.416.428 4.36 2.268 4.84 4.577.45 2.16.196 5.144-.554 6.512-.295.54-.732 1.135-1.155 1.71-.37.505-.93 1.267-.965 1.495-.08.58-.134 3.448-.107 4.21.017.456-.044 1.57-.098 2.556-.035.633-.08 1.42-.07 1.555a.507.507 0 0 1-.498.542z"/><path d="M23.753 22.18a.5.5 0 0 1-.415-.22c-.4-.59-2.303-1.223-4.237-1.176-1.21.025-2.495.64-3.176 1.198a.5.5 0 1 1-.635-.77c.835-.69 2.332-1.397 3.79-1.428 1.91-.026 4.338.512 5.086 1.615a.5.5 0 0 1-.413.78z"/><path d="M14.987 30.192h-1.842a.5.5 0 0 1-.496-.564c.003-.034.44-3.493.414-4.643-.03-1.247-.26-2.712-.513-3.266-.09-.2-.312-.526-.547-.872-.507-.746-1.08-1.593-1.168-2.29A.5.5 0 0 1 11.27 18a.497.497 0 0 1 .557.434c.058.46.604 1.265 1.004 1.853.27.397.504.74.63 1.017.354.773.576 2.462.604 3.658.022.94-.228 3.176-.354 4.23h.786c.022-.907.094-2.792.274-4.252.077-.63.158-1.486.24-2.366.197-2.077.338-3.477.507-3.983a.5.5 0 0 1 .948.318c-.145.436-.32 2.28-.46 3.76-.083.892-.165 1.76-.244 2.396-.223 1.818-.274 4.315-.274 4.63 0 .274-.222.498-.5.498z"/><path d="M12.28 22.258c-1.04 0-2.328-.483-2.82-1.986a24.78 24.78 0 0 1-.522-1.915c-.22-.91-.45-1.85-.89-2.905-.213-.516-.374-.966-.518-1.365-.353-.983-.565-1.576-1.19-2.123a.5.5 0 0 1 .658-.754c.822.72 1.095 1.482 1.474 2.54.138.386.293.82.5 1.32.47 1.126.707 2.104.938 3.05.152.625.295 1.215.5 1.842.46 1.406 1.91 1.36 2.383 1.235a.506.506 0 0 1 .612.354.5.5 0 0 1-.354.613c-.224.06-.487.095-.77.095zM31.233 20.068a.5.5 0 0 1-.492-.414c-.073-.428-.08-1.345-.087-2.506-.01-1.322-.02-2.82-.138-3.77-.19-1.527-1.727-2.937-2.715-3.326a.5.5 0 1 1 .367-.93c1.197.473 3.087 2.112 3.34 4.132.126 1.01.137 2.54.146 3.89.007 1.025.014 1.994.074 2.34a.5.5 0 0 1-.494.584z"/><path d="M31.55 24.74c-.01 0-.02 0-.032-.002a.506.506 0 0 1-.39-.23 13.8 13.8 0 0 1-.816-1.57c-.256-.566-.796-1.985-.29-2.903.148-.27.455-.613 1.066-.7.602-.086 1.075.04 1.41.37.585.573.543 1.58.44 2.393-.184 1.46-.97 2.422-1.004 2.462a.503.503 0 0 1-.384.18zm-.11-4.433c-.062 0-.133.006-.21.017-.216.03-.29.114-.332.192-.188.34-.054 1.168.326 2.01.124.275.24.516.345.72.156-.33.312-.767.376-1.274.13-1.037-.01-1.418-.148-1.556-.073-.073-.193-.11-.357-.11z"/>
</svg>