<svg version="1.1" xmlns="http://www.w3.org/2000/svg" xmlns:xlink="http://www.w3.org/1999/xlink" x="0px" y="0px"
	 viewBox="0 0 33 27.4" style="enable-background:new 0 0 33 27.4;" xml:space="preserve" width="41" fill="#fff">
<path d="M26.9,4.9L26.9,4.9c0-0.4,0.3-0.7,0.7-0.7s0.7,0.3,0.7,0.7c0,0.4-0.3,0.7-0.7,0.7S26.9,5.3,26.9,4.9z M27.4,4.9
	c0,0.3,0.5,0.3,0.5,0c0-0.1-0.1-0.3-0.3-0.3C27.5,4.6,27.4,4.7,27.4,4.9z"/>
<path d="M30.2,9.3c-0.1,0-0.2,0-0.3,0c-0.1,0-0.2-0.1-0.3-0.1c-0.5-0.2-1.2-0.5-2-0.2c-1.4,0.6-3.7-0.5-4.8-2.2
	c-0.2-0.2-0.1-0.5,0.1-0.7c0.2-0.2,0.5-0.1,0.7,0.1c0.9,1.4,2.7,2.2,3.6,1.8C28.4,7.6,29.4,8,30,8.2c0.1,0,0.2,0.1,0.2,0.1
	c0.2,0,0.7-0.2,1.1-0.5c0.4-0.4,0.8-0.9,0.8-1c-0.1-0.2-0.8-0.9-1.4-1.4c-0.7-0.7-1.5-1.4-1.8-1.9c-0.2-0.2-0.3-0.4-0.5-0.6
	c-0.4-0.6-0.9-1.2-1.4-1.3c-0.8-0.2-1.5-0.3-2.2,0.5c-0.2,0.2-0.5,0.2-0.7,0.1c-0.2-0.2-0.3-0.5-0.1-0.7c1.1-1.4,2.5-1,3.2-0.8
	c0.8,0.2,1.4,1,1.9,1.7c0.1,0.2,0.3,0.4,0.4,0.6c0.3,0.4,1.1,1.1,1.8,1.8c1,1,1.4,1.4,1.6,1.6c0.5,0.9-0.8,2.1-1,2.3
	C31.5,8.9,30.8,9.3,30.2,9.3L30.2,9.3z"/>
<path d="M23.9,4.3c0,0-0.1,0-0.1,0c-1.1-0.3-2.3-1.7-2.2-2.8c0-0.7,0.3-1.3,0.8-1.4C22.5,0,23-0.1,23.5,0.4
	C24.1,1,25,1.6,25.4,1.9c0.2,0.1,0.3,0.5,0.2,0.7c-0.1,0.2-0.5,0.3-0.7,0.2c-0.4-0.2-1.4-1-2.1-1.6C22.7,1.1,22.7,1,22.7,1
	c0,0.1-0.1,0.2-0.1,0.5c0,0.6,0.7,1.6,1.5,1.7c0.2,0.1,0.4,0.3,0.4,0.5C24.4,4.1,24.2,4.3,23.9,4.3L23.9,4.3z"/>
<path d="M7,27.4C7,27.4,7,27.4,7,27.4c-0.3,0-0.5-0.3-0.5-0.5c0-0.1,0-0.9-0.1-1.6c-0.1-1-0.1-2.1-0.1-2.6
	c0-0.8,0-3.6-0.1-4.2c0-0.2-0.6-1-1-1.5c-0.4-0.6-0.9-1.2-1.2-1.7c-0.8-1.4-1-4.4-0.6-6.5C4,6.5,6,4.7,8.4,4.2
	c1.5-0.3,2.5,0.1,3.5,0.5c0.6,0.2,1.1,0.4,1.6,0.4c1.4,0,4-0.1,5.1-0.4c1.2-0.3,3.1-1.3,3.8-1.7l0,0c0.2-0.2,0.5-0.1,0.7,0.1
	c0.2,0.2,0.1,0.5-0.1,0.7c-0.7,0.5-2.8,1.5-4.1,1.8c-1.3,0.4-4,0.5-5.4,0.5c-0.7,0-1.3-0.2-1.9-0.4c-0.9-0.3-1.8-0.6-3-0.4
	c-2,0.4-3.6,1.9-4,3.8c-0.4,2.1-0.1,4.8,0.5,5.8c0.3,0.5,0.7,1.1,1.1,1.6c0.7,0.9,1.1,1.5,1.1,2c0.1,0.7,0.1,3.6,0.1,4.4
	c0,0.4,0.1,1.5,0.1,2.5c0,0.5,0,0.9,0.1,1.1h0.6c-0.1-1-0.3-3.2-0.2-4.1c0.1-0.9,0.3-2,0.5-2.8l0.1-0.6c0.1-0.3,0.3-0.7,0.6-1.2
	c0.6-1,1.4-2.3,1.2-3.6c0-0.3,0.2-0.5,0.4-0.6c0,0,0,0,0,0c0.3,0,0.5,0.2,0.5,0.4c0.2,1.6-0.7,3.2-1.3,4.2c-0.2,0.3-0.4,0.7-0.4,0.8
	l-0.1,0.6c-0.2,0.8-0.4,1.9-0.5,2.8c-0.1,0.8,0.1,3.5,0.2,4.4c0,0.1,0,0.3-0.1,0.4c-0.1,0.1-0.2,0.2-0.4,0.2L7,27.4L7,27.4z"/>
<path d="M9.2,19.4c-0.1,0-0.2,0-0.3-0.1c-0.2-0.2-0.3-0.5-0.1-0.7C9.6,17.5,12,17,13.9,17c1.5,0,3,0.7,3.8,1.4
	c0,0,0,0,0,0c0.2,0.2,0.2,0.5,0,0.7c-0.2,0.2-0.5,0.2-0.7,0c-0.7-0.6-2-1.2-3.2-1.2c-1.9,0-3.8,0.6-4.2,1.2
	C9.6,19.3,9.4,19.4,9.2,19.4L9.2,19.4z"/>
<path d="M18,27.4c-0.3,0-0.5-0.2-0.5-0.5c0-0.3-0.1-2.8-0.3-4.6c-0.1-0.6-0.2-1.5-0.2-2.4c-0.1-1.5-0.3-3.3-0.5-3.8
	c-0.1-0.3,0.1-0.5,0.3-0.6c0.3-0.1,0.5,0,0.6,0.3c0.2,0.5,0.3,1.9,0.5,4c0.1,0.9,0.2,1.7,0.2,2.4c0.2,1.5,0.3,3.3,0.3,4.3h0.8
	c-0.1-1.1-0.4-3.3-0.4-4.2c0-1.2,0.3-2.9,0.6-3.7c0.1-0.3,0.4-0.6,0.6-1c0.4-0.6,0.9-1.4,1-1.9c0,0,0,0,0,0c0-0.3,0.3-0.5,0.6-0.4
	c0.3,0,0.5,0.3,0.4,0.6c-0.1,0.7-0.7,1.5-1.2,2.3c-0.2,0.3-0.5,0.7-0.5,0.9c-0.3,0.6-0.5,2-0.5,3.3c0,1.1,0.4,4.6,0.4,4.6
	c0,0,0,0,0,0.1c0,0.3-0.2,0.5-0.5,0.5L18,27.4L18,27.4z"/>
<path d="M20.7,19.5c-0.3,0-0.5,0-0.8-0.1c0,0,0,0,0,0c-0.3-0.1-0.4-0.3-0.4-0.6c0.1-0.3,0.3-0.4,0.6-0.4
	c0.5,0.1,1.9,0.2,2.4-1.2c0.2-0.6,0.3-1.2,0.5-1.8c0.2-0.9,0.5-1.9,0.9-3.1c0.2-0.5,0.4-0.9,0.5-1.3c0.4-1.1,0.7-1.8,1.5-2.5
	c0.2-0.2,0.5-0.2,0.7,0c0.2,0.2,0.2,0.5,0,0.7c-0.6,0.5-0.8,1.1-1.2,2.1c-0.1,0.4-0.3,0.8-0.5,1.4c-0.4,1.1-0.7,2-0.9,2.9
	c-0.1,0.6-0.3,1.3-0.5,1.9C23,19,21.8,19.5,20.7,19.5L20.7,19.5z M1.8,17.3C1.7,17.3,1.7,17.3,1.8,17.3c-0.4-0.1-0.5-0.3-0.5-0.6
	c0.1-0.3,0.1-1.3,0.1-2.3c0-1.3,0-2.9,0.1-3.9c0.3-2,2.1-3.7,3.3-4.1c0,0,0,0,0,0c0.3-0.1,0.5,0,0.6,0.3s0,0.5-0.3,0.6
	c-1,0.4-2.5,1.8-2.7,3.3c-0.1,1-0.1,2.4-0.1,3.8c0,1.2,0,2.1-0.1,2.5C2.2,17.1,2,17.3,1.8,17.3L1.8,17.3z"/>
<path d="M1.1,21.8c0,0-0.8-1-1-2.5c-0.1-0.8-0.1-1.8,0.4-2.4c0.3-0.3,0.8-0.5,1.4-0.4C2.5,16.6,2.8,17,3,17.2
	c0.5,0.9,0,2.3-0.3,2.9c-0.2,0.5-0.5,1.1-0.8,1.6c-0.1,0.1-0.2,0.2-0.4,0.2c0,0,0,0,0,0C1.3,21.9,1.2,21.9,1.1,21.8z M1.6,17.5
	c-0.2,0-0.3,0-0.4,0.1c-0.1,0.1-0.3,0.5-0.1,1.6c0.1,0.5,0.2,0.9,0.4,1.3c0.1-0.2,0.2-0.4,0.3-0.7c0.4-0.8,0.5-1.7,0.3-2
	c0-0.1-0.1-0.2-0.3-0.2C1.7,17.5,1.6,17.5,1.6,17.5L1.6,17.5z"/>
</svg>
