<svg xmlns="http://www.w3.org/2000/svg" viewBox="0 0 496 496" width="37" fill="#fff">
    <path d="M480 0v41.576a18.91 18.91 0 0 1-8.44 15.768A34.868 34.868 0 0 0 456 86.424V120h16V86.424a18.91 18.91 0 0 1 8.44-15.768A34.868 34.868 0 0 0 496 41.576V0h-16zM424 86.424a18.91 18.91 0 0 1 8.44-15.768A34.868 34.868 0 0 0 448 41.576V0h-16v41.576a18.91 18.91 0 0 1-8.44 15.768A34.868 34.868 0 0 0 408 86.424V120h16V86.424zM376 86.424a18.91 18.91 0 0 1 8.44-15.768A34.868 34.868 0 0 0 400 41.576V0h-16v41.576a18.91 18.91 0 0 1-8.44 15.768A34.868 34.868 0 0 0 360 86.424V120h16V86.424z"/><path d="M416 136c-17.32 0-32.856 6.616-50.848 14.272a832.877 832.877 0 0 1-13.152 5.48v-47.064l-24-24-24 24v61.904c-10.336 2.112-20.928 3.592-32 4.456v-66.352l-24-24-24 24v66.352c-11.08-.856-21.664-2.336-32-4.448v-61.904l-24-24-24 24v47.064a914.164 914.164 0 0 1-13.136-5.472C112.864 142.616 97.328 136 80 136c-50.096 0-80 32.896-80 88 0 42.944 29.736 77.672 86 100.416 17.168 6.944 36.856 12.656 58 17.088V368c0 22.056 17.944 40 40 40h16c4.408 0 8 3.584 8 8v80h16v-80c0-13.232-10.768-24-24-24h-16c-13.232 0-24-10.768-24-24v-23.392c27.896 4.808 57.872 7.392 88 7.392s60.104-2.584 88-7.392V368c0 13.232-10.768 24-24 24h-16c-13.232 0-24 10.768-24 24v80h16v-80c0-4.416 3.592-8 8-8h16c22.056 0 40-17.944 40-40v-26.496c21.144-4.44 40.832-10.152 58-17.088 56.264-22.744 86-57.472 86-100.416 0-55.104-29.904-88-80-88zm-96-20.688l8-8 8 8V240h-16V115.312zm-80 0l8-8 8 8V240h-16V115.312zm69.056 217.152c3.272-8.68 5.952-17.68 7.768-26.92l-15.704-3.08c-1.832 9.352-4.52 18.496-8 27.176l-1.84 4.592a528.057 528.057 0 0 1-31.416 1.624l.112-.28C267.96 315.656 272 294.664 272 273.184V272h-16v1.184c0 19.432-3.656 38.424-10.872 56.456l-2.52 6.304a534.424 534.424 0 0 1-30.344-1.168c7.76-19.68 11.736-40.392 11.736-61.592V272h-16v1.184c0 19.432-3.656 38.424-10.872 56.456l-1.512 3.776C101.696 324.056 16 288.96 16 224c0-45.76 23.328-72 64-72 14.056 0 27.536 5.736 44.592 13 5.832 2.48 12.44 5.224 19.408 7.928V256h48v-32h-16v16h-16V115.312l8-8 8 8V208h16v-21.08c10.344 1.984 20.952 3.336 32 4.152V256h48v-64.92c11.04-.816 21.648-2.168 32-4.152V256h48v-83.072a649.348 649.348 0 0 0 19.416-7.936C388.472 157.736 401.944 152 416 152c40.672 0 64 26.24 64 72 0 62.952-80.488 97.84-170.944 108.464z"/><path d="M304 273.184c0 4.536-.224 9.272-.672 14.072l15.928 1.488a167.46 167.46 0 0 0 .744-15.56V272h-16v1.184z"/>
</svg>