<?xml version="1.0" encoding="iso-8859-1"?>
<!-- Generator: Adobe Illustrator 19.0.0, SVG Export Plug-In . SVG Version: 6.00 Build 0)  -->
<svg version="1.1" id="Capa_1" xmlns="http://www.w3.org/2000/svg" xmlns:xlink="http://www.w3.org/1999/xlink" x="0px" y="0px"
	 viewBox="0 0 496 496" style="enable-background:new 0 0 496 496;" xml:space="preserve">
<g>
	<g>
		<g>
			<path d="M480,0v41.576c0,6.352-3.152,12.24-8.44,15.768C461.816,63.84,456,74.704,456,86.424V120h16V86.424
				c0-6.352,3.152-12.24,8.44-15.768c9.744-6.496,15.56-17.36,15.56-29.08V0H480z"/>
			<path d="M424,86.424c0-6.352,3.152-12.24,8.44-15.768c9.744-6.496,15.56-17.36,15.56-29.08V0h-16v41.576
				c0,6.352-3.152,12.24-8.44,15.768C413.816,63.84,408,74.704,408,86.424V120h16V86.424z"/>
			<path d="M376,86.424c0-6.352,3.152-12.24,8.44-15.768c9.744-6.496,15.56-17.36,15.56-29.08V0h-16v41.576
				c0,6.352-3.152,12.24-8.44,15.768C365.816,63.84,360,74.704,360,86.424V120h16V86.424z"/>
			<path d="M416,136c-17.32,0-32.856,6.616-50.848,14.272c-4.24,1.808-8.624,3.64-13.152,5.48v-47.064l-24-24l-24,24v61.904
				c-10.336,2.112-20.928,3.592-32,4.456v-66.352l-24-24l-24,24v66.352c-11.08-0.856-21.664-2.336-32-4.448v-61.904l-24-24l-24,24
				v47.064c-4.52-1.84-8.904-3.672-13.136-5.472C112.864,142.616,97.328,136,80,136c-50.096,0-80,32.896-80,88
				c0,42.944,29.736,77.672,86,100.416c17.168,6.944,36.856,12.656,58,17.088V368c0,22.056,17.944,40,40,40h16c4.408,0,8,3.584,8,8
				v80h16v-80c0-13.232-10.768-24-24-24h-16c-13.232,0-24-10.768-24-24v-23.392c27.896,4.808,57.872,7.392,88,7.392
				s60.104-2.584,88-7.392V368c0,13.232-10.768,24-24,24h-16c-13.232,0-24,10.768-24,24v80h16v-80c0-4.416,3.592-8,8-8h16
				c22.056,0,40-17.944,40-40v-26.496c21.144-4.44,40.832-10.152,58-17.088c56.264-22.744,86-57.472,86-100.416
				C496,168.896,466.096,136,416,136z M320,115.312l8-8l8,8V240h-16V115.312z M240,115.312l8-8l8,8V240h-16V115.312z
				 M309.056,332.464c3.272-8.68,5.952-17.68,7.768-26.92l-15.704-3.08c-1.832,9.352-4.52,18.496-8,27.176l-1.84,4.592
				c-10.44,0.856-20.944,1.392-31.416,1.624l0.112-0.28C267.96,315.656,272,294.664,272,273.184V272h-16v1.184
				c0,19.432-3.656,38.424-10.872,56.456l-2.52,6.304c-10.096-0.104-20.24-0.488-30.344-1.168
				c7.76-19.68,11.736-40.392,11.736-61.592V272h-16v1.184c0,19.432-3.656,38.424-10.872,56.456l-1.512,3.776
				C101.696,324.056,16,288.96,16,224c0-45.76,23.328-72,64-72c14.056,0,27.536,5.736,44.592,13
				c5.832,2.48,12.44,5.224,19.408,7.928V256h48v-32h-16v16h-16V115.312l8-8l8,8V208h16v-21.08c10.344,1.984,20.952,3.336,32,4.152
				V256h48v-64.92c11.04-0.816,21.648-2.168,32-4.152V256h48v-83.072c6.976-2.712,13.584-5.448,19.416-7.936
				C388.472,157.736,401.944,152,416,152c40.672,0,64,26.24,64,72C480,286.952,399.512,321.84,309.056,332.464z"/>
			<path d="M304,273.184c0,4.536-0.224,9.272-0.672,14.072l15.928,1.488c0.496-5.288,0.744-10.528,0.744-15.56V272h-16V273.184z"/>
		</g>
	</g>
</g>
<g>
</g>
<g>
</g>
<g>
</g>
<g>
</g>
<g>
</g>
<g>
</g>
<g>
</g>
<g>
</g>
<g>
</g>
<g>
</g>
<g>
</g>
<g>
</g>
<g>
</g>
<g>
</g>
<g>
</g>
</svg>
