<?xml version="1.0" encoding="utf-8"?>
<!-- Generator: Adobe Illustrator 21.1.0, SVG Export Plug-In . SVG Version: 6.00 Build 0)  -->
<svg version="1.1" id="Слой_1" xmlns="http://www.w3.org/2000/svg" xmlns:xlink="http://www.w3.org/1999/xlink" x="0px" y="0px"
	 viewBox="0 0 112.1 42.5" style="enable-background:new 0 0 112.1 42.5;" xml:space="preserve">
<style type="text/css">
	.st0{fill:#1D1D1B;}
</style>
<g>
	<path class="st0" d="M111.5,22.7c0.4-0.4,0.6-0.9,0.6-1.4c0-0.5-0.2-1-0.6-1.4L90.3,0.6c-0.8-0.8-2.1-0.8-2.8,0
		c-0.8,0.8-0.8,2.1,0,2.8l17.8,15.8H2c-1.1,0-2,0.9-2,2s0.9,2,2,2h103.3L87.5,39.1c-0.8,0.8-0.8,2.1,0,2.8c0.8,0.8,2.1,0.8,2.8,0
		C90.3,41.9,111.5,22.7,111.5,22.7z"/>
</g>
</svg>
