<svg version="1.1" width="37px" height="14px" xmlns="http://www.w3.org/2000/svg" xmlns:xlink="http://www.w3.org/1999/xlink" x="0px" y="0px"
	 viewBox="0 0 37 14" style="enable-background:new 0 0 37 14;" xml:space="preserve">
<style type="text/css">
	.st0{fill:#FFFFFF;}
</style>
<path class="st0" d="M7.2,13.8c0.2,0.3,0.7,0.3,0.9,0c0.3-0.2,0.3-0.7,0-0.9L2.3,7.6h34C36.7,7.6,37,7.3,37,7c0-0.4-0.3-0.7-0.7-0.7
	h-34l5.9-5.2c0.3-0.2,0.3-0.7,0-0.9c-0.2-0.3-0.7-0.3-0.9,0l-7,6.4C0.1,6.7,0,6.9,0,7c0,0.2,0.1,0.3,0.2,0.5
	C0.2,7.5,7.2,13.8,7.2,13.8z"/>
</svg>
