<svg xmlns="http://www.w3.org/2000/svg" viewBox="0 0 489.4 489.4" width="30px" height="30px" fill="#fff"><path d="M159.1 369.3l291.9.1c21.2 0 38.4-17.2 38.4-38.4V77.4c0-21.2-17.2-38.4-38.4-38.4H38.4C17.2 39 0 56.3 0 77.4V331c0 21.2 17.2 38.4 38.4 38.4h17.9v61.9c0 7.7 4.6 14.6 11.7 17.5 2.4 1 4.8 1.5 7.3 1.5 4.9 0 9.8-1.9 13.4-5.6l78.9-79c4.8-4.8 4.8-12.5 0-17.3s-12.5-4.8-17.3 0l-69.5 69.5V357c0-6.8-5.5-12.3-12.3-12.3H38.4c-7.7 0-13.9-6.2-13.9-13.9V77.4c0-7.7 6.2-13.9 13.9-13.9H451c7.7 0 13.9 6.2 13.9 13.9V331c0 7.7-6.2 13.9-13.9 13.9l-291.9-.1c-6.8 0-12.3 5.5-12.3 12.3s5.5 12.2 12.3 12.2z"/><path d="M88.1 152.9h313.2c6.8 0 12.3-5.5 12.3-12.3s-5.5-12.3-12.3-12.3H88.1c-6.8 0-12.3 5.5-12.3 12.3s5.5 12.3 12.3 12.3zM88.1 218.9h313.2c6.8 0 12.3-5.5 12.3-12.3s-5.5-12.3-12.3-12.3H88.1c-6.8 0-12.3 5.5-12.3 12.3s5.5 12.3 12.3 12.3zM88.1 284.8h156.6c6.8 0 12.3-5.5 12.3-12.3s-5.5-12.3-12.3-12.3H88.1c-6.8 0-12.3 5.5-12.3 12.3s5.5 12.3 12.3 12.3z"/></svg>